<svg width="263" height="52" fill="none" xmlns="http://www.w3.org/2000/svg"><path d="M37.519 22.727V4.404h4.842v6.805h7.068V4.404h4.842v18.323H49.43v-7.068h-7.07v7.068h-4.84zM57.139 5.45c0-.628.235-1.151.706-1.57.471-.436 1.065-.654 1.78-.654.716 0 1.309.218 1.78.654.471.419.707.942.707 1.57 0 .611-.236 1.135-.707 1.571-.471.436-1.064.655-1.78.655-.715 0-1.309-.219-1.78-.655-.47-.436-.706-.96-.706-1.57zm.261 17.277V9.115h4.45v13.612H57.4zm8.436-2.068c-1.17-1.292-1.754-2.958-1.754-5s.585-3.708 1.754-5c1.17-1.29 2.591-1.936 4.267-1.936 1.204 0 2.242.349 3.115 1.047.401.314.715.663.942 1.047h.262V9.115h4.45V27.7H65.915v-3.534h8.507v-3.533h-.262a3.644 3.644 0 01-.942.994c-.855.646-1.894.969-3.115.969-1.675 0-3.098-.646-4.267-1.937zm3.612-7.303c-.523.558-.785 1.326-.785 2.303 0 .977.262 1.745.785 2.304.524.558 1.222.837 2.095.837.872 0 1.57-.279 2.093-.837.524-.559.786-1.327.786-2.304 0-.977-.262-1.745-.785-2.303-.524-.559-1.222-.838-2.094-.838-.873 0-1.571.28-2.095.838zm12.029 9.371V4.404h4.45v6.543h.262c.244-.418.558-.785.942-1.099.89-.75 1.928-1.125 3.115-1.125 1.606 0 2.853.488 3.743 1.465.908.96 1.361 2.348 1.361 4.162v8.377H90.9v-7.722c0-.786-.209-1.396-.628-1.833-.419-.436-.995-.654-1.727-.654-.75 0-1.379.28-1.885.838-.489.54-.733 1.265-.733 2.172v7.199h-4.45zm23.696 4.973V9.115h4.45v1.832h.262c.244-.4.576-.767.995-1.099.96-.75 1.98-1.125 3.062-1.125 1.676 0 3.098.663 4.267 1.989 1.169 1.309 1.754 3.045 1.754 5.209 0 2.164-.585 3.909-1.754 5.235-1.169 1.309-2.591 1.963-4.267 1.963-1.099 0-2.12-.366-3.062-1.1a4.015 4.015 0 01-.995-1.125h-.262V27.7h-4.45zm5.236-14.292c-.524.593-.786 1.431-.786 2.513 0 1.082.262 1.92.786 2.513.523.593 1.221.89 2.094.89.872 0 1.57-.297 2.094-.89.523-.594.785-1.431.785-2.513 0-1.082-.262-1.92-.785-2.513-.524-.593-1.222-.89-2.094-.89-.873 0-1.571.297-2.094.89zm12.866 7.748c-1.169-1.326-1.754-3.071-1.754-5.235s.585-3.9 1.754-5.21c1.169-1.325 2.591-1.988 4.267-1.988 1.082 0 2.102.375 3.062 1.125.402.332.733.698.995 1.1h.262V9.114h4.45v13.612h-4.45v-1.833h-.262a4.015 4.015 0 01-.995 1.126c-.942.733-1.963 1.1-3.062 1.1-1.676 0-3.098-.655-4.267-1.964zm3.612-7.748c-.523.593-.785 1.431-.785 2.513 0 1.082.262 1.92.785 2.513.524.593 1.222.89 2.094.89.873 0 1.571-.297 2.094-.89.524-.594.786-1.431.786-2.513 0-1.082-.262-1.92-.786-2.513-.523-.593-1.221-.89-2.094-.89-.872 0-1.57.297-2.094.89zm11.244 4.869h4.45c.069.261.218.506.445.733.471.47 1.151.706 2.041.706 1.222 0 1.833-.305 1.833-.916 0-.279-.175-.497-.524-.654-.349-.175-.872-.35-1.57-.524-.576-.14-.952-.227-1.126-.261a19.121 19.121 0 01-1.099-.288c-.559-.175-.96-.323-1.205-.445-.226-.14-.549-.332-.968-.576-.401-.262-.698-.524-.89-.785-.175-.28-.34-.62-.497-1.021a3.772 3.772 0 01-.236-1.335c0-1.152.515-2.138 1.544-2.958 1.03-.82 2.478-1.23 4.346-1.23 2.338 0 4.188.767 5.549 2.303a5.707 5.707 0 011.126 2.277h-4.319a2.08 2.08 0 00-.367-.654c-.401-.436-.977-.654-1.728-.654-1.047 0-1.57.305-1.57.916 0 .296.174.523.523.68.349.157.882.306 1.597.445 1.798.42 3.01.786 3.639 1.1 1.57.768 2.355 1.945 2.355 3.533 0 1.257-.558 2.313-1.675 3.168-1.099.855-2.679 1.282-4.738 1.282-2.53 0-4.458-.802-5.785-2.408a5.33 5.33 0 01-1.151-2.434zm14.519 0h4.45c.07.261.218.506.445.733.471.47 1.152.706 2.042.706 1.221 0 1.832-.305 1.832-.916 0-.279-.174-.497-.523-.654-.349-.175-.873-.35-1.571-.524a37.01 37.01 0 00-1.126-.261 19.349 19.349 0 01-1.099-.288c-.558-.175-.96-.323-1.204-.445a47.62 47.62 0 00-.969-.576c-.401-.262-.698-.524-.89-.785-.174-.28-.34-.62-.497-1.021a3.771 3.771 0 01-.235-1.335c0-1.152.514-2.138 1.544-2.958 1.03-.82 2.478-1.23 4.345-1.23 2.339 0 4.188.767 5.549 2.303a5.694 5.694 0 011.126 2.277h-4.319a2.1 2.1 0 00-.366-.654c-.402-.436-.978-.654-1.728-.654-1.047 0-1.571.305-1.571.916 0 .296.175.523.524.68.349.157.881.306 1.597.445 1.797.42 3.01.786 3.638 1.1 1.571.768 2.356 1.945 2.356 3.533 0 1.257-.559 2.313-1.675 3.168-1.1.855-2.679 1.282-4.738 1.282-2.531 0-4.459-.802-5.785-2.408a5.342 5.342 0 01-1.152-2.434z" fill="#fff"/><path fill-rule="evenodd" clip-rule="evenodd" d="M5.235 6.149v15.705h15.706L5.235 6.15zM0 .914V27.09h26.176V.914H0z" fill="#FF6E30"/><path d="M1.932 45.124C1.017 44.284.56 43.253.56 42.03c0-1.222.457-2.25 1.372-3.08.915-.84 2.114-1.26 3.598-1.26v-1.12h1.26v1.12c1.484 0 2.683.42 3.598 1.26.915.83 1.372 1.858 1.372 3.08 0 1.223-.457 2.254-1.372 3.094-.915.83-2.114 1.246-3.598 1.246v1.12H5.53v-1.12c-1.484 0-2.683-.415-3.598-1.246zM6.79 38.81v6.44c1.13 0 2.03-.303 2.702-.91.672-.606 1.008-1.376 1.008-2.31 0-.933-.336-1.703-1.008-2.31-.672-.606-1.573-.91-2.702-.91zm-3.962.91c-.672.607-1.008 1.377-1.008 2.31 0 .934.336 1.704 1.008 2.31.672.607 1.573.91 2.702.91v-6.44c-1.13 0-2.03.304-2.702.91zm11.086 6.384c-.69-.69-1.036-1.558-1.036-2.604 0-1.045.346-1.913 1.036-2.604.691-.69 1.559-1.036 2.604-1.036 1.046 0 1.914.346 2.604 1.036.691.69 1.036 1.559 1.036 2.604 0 1.046-.345 1.914-1.036 2.604-.69.69-1.558 1.036-2.604 1.036-1.045 0-1.913-.345-2.604-1.036zm.798-4.466c-.476.486-.714 1.106-.714 1.862s.238 1.377.714 1.862c.476.486 1.078.728 1.806.728s1.33-.242 1.806-.728c.476-.485.714-1.106.714-1.862s-.238-1.376-.714-1.862c-.476-.485-1.078-.728-1.806-.728s-1.33.243-1.806.728zm6.07-.588V40h6.02v1.05h-2.45V47h-1.12v-5.95h-2.45zm7.693 5.054c-.69-.69-1.036-1.558-1.036-2.604 0-1.045.345-1.913 1.036-2.604.69-.69 1.559-1.036 2.604-1.036 1.045 0 1.913.346 2.604 1.036.69.69 1.036 1.559 1.036 2.604 0 1.046-.345 1.914-1.036 2.604-.69.69-1.559 1.036-2.604 1.036-1.045 0-1.913-.345-2.604-1.036zm.798-4.466c-.476.486-.714 1.106-.714 1.862s.238 1.377.714 1.862c.476.486 1.078.728 1.806.728s1.33-.242 1.806-.728c.476-.485.714-1.106.714-1.862s-.238-1.376-.714-1.862c-.476-.485-1.078-.728-1.806-.728s-1.33.243-1.806.728zm7.568 4.466c-.672-.69-1.008-1.558-1.008-2.604 0-1.045.336-1.913 1.008-2.604.672-.69 1.503-1.036 2.492-1.036 1.148 0 2.058.41 2.73 1.232.29.364.5.77.63 1.218h-1.12a2.224 2.224 0 00-.462-.7c-.448-.466-1.04-.7-1.778-.7-.68 0-1.25.243-1.708.728-.448.486-.672 1.106-.672 1.862s.234 1.377.7 1.862c.467.486 1.027.728 1.68.728.766 0 1.377-.256 1.834-.77.206-.214.364-.471.476-.77h1.12c-.12.476-.336.91-.644 1.302-.709.859-1.638 1.288-2.786 1.288-.989 0-1.82-.345-2.492-1.036zm6.419-5.054V40h6.02v1.05h-2.45V47h-1.12v-5.95h-2.45zM49.636 40h1.19l1.54 5.95h1.05l1.82-5.95h1.19l-2.94 9.66h-1.19l.84-2.66h-1.61l-1.89-7zm6.584 8.61v-2.66h.77L58.6 40h2.94l1.61 5.95h.77v2.66H62.8V47h-5.46v1.61h-1.12zm1.89-2.66h3.92l-1.33-4.9h-1.26l-1.33 4.9zM64.964 47v-7h1.12v5.25l-.014.14h.028L69.864 40h1.26v7h-1.12v-5.25l.014-.14h-.028L66.224 47h-1.26zm7.841 0l1.4-2.52a2.933 2.933 0 01-.7-.448c-.466-.43-.7-.98-.7-1.652 0-.681.248-1.246.742-1.694.495-.457 1.153-.686 1.975-.686h3.163v7h-1.12v-2.24h-2.24L74.095 47h-1.288zm1.526-5.586c-.27.243-.406.565-.406.966 0 .402.136.724.407.966.28.243.68.364 1.204.364h2.03v-2.66h-2.03c-.523 0-.924.122-1.204.364zM84.71 47v-9.8h1.26v4.27h5.25V37.2h1.26V47h-1.26v-4.34h-5.25V47h-1.26zm9.882-8.554a.743.743 0 01-.224-.546c0-.214.074-.396.224-.546a.743.743 0 01.546-.224c.214 0 .396.075.546.224.149.15.224.332.224.546a.743.743 0 01-.224.546.743.743 0 01-.546.224.743.743 0 01-.546-.224zM94.578 47v-7h1.12v7h-1.12zm3.636-.896c-.653-.7-.98-1.568-.98-2.604s.327-1.9.98-2.59c.653-.7 1.447-1.05 2.38-1.05.588 0 1.087.112 1.498.336.41.224.704.462.882.714l.126.21h.014V40h1.12v9.66h-6.02v-1.05h4.9v-2.73h-.014l-.126.196c-.168.252-.458.495-.868.728-.411.224-.915.336-1.512.336-.933 0-1.727-.345-2.38-1.036zm.812-4.466c-.448.486-.672 1.106-.672 1.862s.224 1.377.672 1.862c.457.486 1.026.728 1.708.728.681 0 1.246-.242 1.694-.728.457-.485.686-1.106.686-1.862s-.229-1.376-.686-1.862c-.448-.485-1.013-.728-1.694-.728-.682 0-1.25.243-1.708.728zM106.199 47v-9.8h1.12v3.85h.014c.14-.224.322-.42.546-.588.513-.401 1.12-.602 1.82-.602.849 0 1.526.27 2.03.812.513.532.77 1.265.77 2.198V47h-1.12v-4.06c0-.672-.168-1.176-.504-1.512-.336-.345-.798-.518-1.386-.518-.644 0-1.167.215-1.568.644-.402.42-.602.976-.602 1.666V47h-1.12zm12.045 2.66V40h1.12v1.12h.014l.14-.21c.158-.242.443-.476.854-.7.41-.233.914-.35 1.512-.35.933 0 1.726.35 2.38 1.05.653.69.98 1.554.98 2.59 0 1.036-.327 1.904-.98 2.604-.654.69-1.447 1.036-2.38 1.036-.598 0-1.106-.112-1.526-.336-.411-.233-.691-.476-.84-.728l-.14-.196h-.014v3.78h-1.12zm1.792-8.022c-.448.486-.672 1.106-.672 1.862s.224 1.377.672 1.862c.457.486 1.026.728 1.708.728.681 0 1.246-.242 1.694-.728.457-.485.686-1.106.686-1.862s-.229-1.376-.686-1.862c-.448-.485-1.013-.728-1.694-.728-.682 0-1.251.243-1.708.728zm7.313 4.466c-.654-.7-.98-1.568-.98-2.604s.326-1.9.98-2.59c.653-.7 1.446-1.05 2.38-1.05.588 0 1.082.112 1.484.336.41.224.709.467.896.728l.126.21h.014V40h1.12v7h-1.12v-1.12h-.014l-.126.196c-.168.252-.458.495-.868.728-.411.224-.915.336-1.512.336-.934 0-1.727-.345-2.38-1.036zm.812-4.466c-.448.486-.672 1.106-.672 1.862s.224 1.377.672 1.862c.457.486 1.026.728 1.708.728.681 0 1.246-.242 1.694-.728.457-.485.686-1.106.686-1.862s-.229-1.376-.686-1.862c-.448-.485-1.013-.728-1.694-.728-.682 0-1.251.243-1.708.728zm6.683 3.192h1.19c.102.252.238.462.406.63.42.42.961.63 1.624.63.597 0 1.036-.098 1.316-.294.289-.196.434-.448.434-.756a.594.594 0 00-.182-.434c-.112-.121-.299-.228-.56-.322a6.275 6.275 0 00-.7-.21 11.334 11.334 0 00-.868-.196c-1.54-.317-2.31-1.003-2.31-2.058 0-.55.233-1.012.7-1.386.466-.382 1.12-.574 1.96-.574 1.045 0 1.871.35 2.478 1.05.242.318.42.668.532 1.05h-1.19a1.758 1.758 0 00-.364-.518c-.355-.354-.84-.532-1.456-.532-.495 0-.878.094-1.148.28-.262.187-.392.397-.392.63 0 .168.056.313.168.434.121.122.312.229.574.322.261.094.49.168.686.224.205.047.499.108.882.182 1.54.318 2.31 1.004 2.31 2.058 0 .598-.252 1.097-.756 1.498-.504.402-1.209.602-2.114.602-1.139 0-2.016-.382-2.632-1.148a3.474 3.474 0 01-.588-1.162zm7.136 0h1.19c.103.252.238.462.406.63.42.42.962.63 1.624.63.598 0 1.036-.098 1.316-.294.29-.196.434-.448.434-.756a.59.59 0 00-.182-.434c-.112-.121-.298-.228-.56-.322a6.152 6.152 0 00-.7-.21 11.222 11.222 0 00-.868-.196c-1.54-.317-2.31-1.003-2.31-2.058 0-.55.234-1.012.7-1.386.467-.382 1.12-.574 1.96-.574 1.046 0 1.872.35 2.478 1.05.243.318.42.668.532 1.05h-1.19a1.74 1.74 0 00-.364-.518c-.354-.354-.84-.532-1.456-.532-.494 0-.877.094-1.148.28-.261.187-.392.397-.392.63 0 .168.056.313.168.434.122.122.313.229.574.322.262.094.49.168.686.224.206.047.5.108.882.182 1.54.318 2.31 1.004 2.31 2.058 0 .598-.252 1.097-.756 1.498-.504.402-1.208.602-2.114.602-1.138 0-2.016-.382-2.632-1.148a3.511 3.511 0 01-.588-1.162zm8.201-1.68c-.709-.71-1.064-1.572-1.064-2.59 0-1.017.355-1.876 1.064-2.576.719-.71 1.601-1.064 2.646-1.064s1.923.355 2.632 1.064c.719.7 1.078 1.559 1.078 2.576 0 1.018-.359 1.88-1.078 2.59-.709.7-1.587 1.05-2.632 1.05-1.045 0-1.927-.35-2.646-1.05zm.644-4.592c-.532.532-.798 1.2-.798 2.002 0 .803.266 1.47.798 2.002.532.532 1.199.798 2.002.798.803 0 1.47-.266 2.002-.798.532-.532.798-1.2.798-2.002 0-.802-.266-1.47-.798-2.002-.532-.532-1.199-.798-2.002-.798-.803 0-1.47.266-2.002.798zm.602 3.612v-3.43h1.61c.98 0 1.47.42 1.47 1.26 0 .308-.117.579-.35.812a1.109 1.109 0 01-.35.238l.77 1.12h-.98l-.7-.98h-.56v.98h-.91zm.91-1.75h.7c.383 0 .574-.14.574-.42 0-.28-.191-.42-.574-.42h-.7v.84zm9.028 6.58v-1.19l3.22-2.38c.887-.662 1.517-1.232 1.89-1.708.374-.476.56-1.026.56-1.652 0-.57-.196-1.036-.588-1.4-.382-.373-.886-.56-1.512-.56-.802 0-1.4.327-1.792.98a2.81 2.81 0 00-.378.98h-1.33a4.181 4.181 0 01.546-1.568c.663-1.054 1.648-1.582 2.954-1.582.971 0 1.774.304 2.408.91.635.607.952 1.354.952 2.24 0 .85-.242 1.596-.728 2.24-.476.635-1.19 1.288-2.142 1.96l-2.03 1.442-.14.084v.028l.126-.014h4.914V47h-6.93zm9.623-1.162c-.859-.961-1.288-2.207-1.288-3.738 0-1.53.429-2.776 1.288-3.738.858-.961 1.899-1.442 3.122-1.442 1.222 0 2.263.48 3.122 1.442.858.962 1.288 2.208 1.288 3.738 0 1.53-.43 2.777-1.288 3.738-.859.962-1.9 1.442-3.122 1.442-1.223 0-2.264-.48-3.122-1.442zm.854-6.664c-.588.7-.882 1.676-.882 2.926 0 1.25.294 2.23.882 2.94.597.7 1.353 1.05 2.268 1.05.914 0 1.666-.35 2.254-1.05.597-.71.896-1.69.896-2.94s-.299-2.226-.896-2.926c-.588-.71-1.34-1.064-2.254-1.064-.915 0-1.671.355-2.268 1.064zm7.801.896v-1.4l1.89-1.47h1.12V47h-1.26v-8.26l-1.75 1.33zm4.764 4.27c0-.858.336-1.54 1.008-2.044a2.933 2.933 0 011.022-.476v-.07a2.666 2.666 0 01-.812-.448c-.532-.438-.798-1.012-.798-1.722 0-.737.308-1.362.924-1.876.626-.522 1.461-.784 2.506-.784 1.046 0 1.876.262 2.492.784.626.514.938 1.139.938 1.876 0 .7-.27 1.274-.812 1.722a2.524 2.524 0 01-.798.448v.07a3.12 3.12 0 011.008.476c.682.514 1.022 1.195 1.022 2.044 0 .803-.35 1.494-1.05 2.072-.69.579-1.624.868-2.8.868-1.176 0-2.114-.29-2.814-.868-.69-.578-1.036-1.27-1.036-2.072zm1.68-4.62c0 .41.196.77.588 1.078.392.308.92.462 1.582.462.663 0 1.19-.154 1.582-.462.392-.308.588-.667.588-1.078 0-.476-.186-.863-.56-1.162-.364-.298-.9-.448-1.61-.448-.709 0-1.25.15-1.624.448a1.433 1.433 0 00-.546 1.162zm.252 3.262c-.448.346-.672.775-.672 1.288 0 .514.224.948.672 1.302.448.346 1.088.518 1.918.518.831 0 1.47-.172 1.918-.518.448-.354.672-.788.672-1.302 0-.513-.224-.942-.672-1.288-.448-.354-1.087-.532-1.918-.532-.83 0-1.47.178-1.918.532zm7.233.798v-1.05h7.84v1.05h-7.84zm9.096 3.22v-1.19l3.22-2.38c.887-.662 1.517-1.232 1.89-1.708s.56-1.026.56-1.652c0-.57-.196-1.036-.588-1.4-.383-.373-.887-.56-1.512-.56-.803 0-1.4.327-1.792.98a2.77 2.77 0 00-.378.98h-1.33a4.181 4.181 0 01.546-1.568c.663-1.054 1.647-1.582 2.954-1.582.971 0 1.773.304 2.408.91.635.607.952 1.354.952 2.24 0 .85-.243 1.596-.728 2.24-.476.635-1.19 1.288-2.142 1.96l-2.03 1.442-.14.084v.028l.126-.014h4.914V47h-6.93zm9.622-1.162c-.858-.961-1.288-2.207-1.288-3.738 0-1.53.43-2.776 1.288-3.738.859-.961 1.9-1.442 3.122-1.442 1.223 0 2.264.48 3.122 1.442.859.962 1.288 2.208 1.288 3.738 0 1.53-.429 2.777-1.288 3.738-.858.962-1.899 1.442-3.122 1.442-1.222 0-2.263-.48-3.122-1.442zm.854-6.664c-.588.7-.882 1.676-.882 2.926 0 1.25.294 2.23.882 2.94.598.7 1.354 1.05 2.268 1.05.915 0 1.666-.35 2.254-1.05.598-.71.896-1.69.896-2.94s-.298-2.226-.896-2.926c-.588-.71-1.339-1.064-2.254-1.064-.914 0-1.67.355-2.268 1.064zM221.016 47v-1.19l3.22-2.38c.886-.662 1.516-1.232 1.89-1.708.373-.476.56-1.026.56-1.652 0-.57-.196-1.036-.588-1.4-.383-.373-.887-.56-1.512-.56-.803 0-1.4.327-1.792.98a2.77 2.77 0 00-.378.98h-1.33a4.181 4.181 0 01.546-1.568c.662-1.054 1.647-1.582 2.954-1.582.97 0 1.773.304 2.408.91.634.607.952 1.354.952 2.24 0 .85-.243 1.596-.728 2.24-.476.635-1.19 1.288-2.142 1.96l-2.03 1.442-.14.084v.028l.126-.014h4.914V47h-6.93zm9.622-1.162c-.859-.961-1.288-2.207-1.288-3.738 0-1.53.429-2.776 1.288-3.738.859-.961 1.899-1.442 3.122-1.442 1.223 0 2.263.48 3.122 1.442s1.288 2.208 1.288 3.738c0 1.53-.429 2.777-1.288 3.738-.859.962-1.899 1.442-3.122 1.442-1.223 0-2.263-.48-3.122-1.442zm.854-6.664c-.588.7-.882 1.676-.882 2.926 0 1.25.294 2.23.882 2.94.597.7 1.353 1.05 2.268 1.05.915 0 1.666-.35 2.254-1.05.597-.71.896-1.69.896-2.94s-.299-2.226-.896-2.926c-.588-.71-1.339-1.064-2.254-1.064s-1.671.355-2.268 1.064z" fill="#E9E9E9"/></svg>